<svg width="30" height="30" viewBox="0 0 30 30" fill="none" xmlns="http://www.w3.org/2000/svg">
<path d="M14.1145 0.794189C14.2917 0.401932 14.8494 0.40193 15.0266 0.794189L18.9377 9.45435C19.088 9.78685 19.3543 10.0531 19.6868 10.2034L28.3469 14.1145C28.7392 14.2917 28.7392 14.8494 28.3469 15.0266L19.6868 18.9377C19.3543 19.088 19.088 19.3543 18.9377 19.6868L15.0266 28.3469C14.8494 28.7392 14.2917 28.7392 14.1145 28.3469L10.2034 19.6868C10.0531 19.3543 9.78685 19.088 9.45435 18.9377L0.794189 15.0266C0.401932 14.8494 0.40193 14.2917 0.794189 14.1145L9.45435 10.2034C9.78685 10.0531 10.0531 9.78685 10.2034 9.45435L14.1145 0.794189Z" fill="white" fill-opacity="0.5"/>
<g clip-path="url(#paint0_angular_310_27_clip_path)" data-figma-skip-parse="true"><g transform="matrix(0 0.016 -0.016 0 14.5706 14.5706)"><foreignObject x="-1062.5" y="-1062.5" width="2125" height="2125"><div xmlns="http://www.w3.org/1999/xhtml" style="background:conic-gradient(from 90deg,rgba(255, 127, 127, 1) 0deg,rgba(251, 166, 130, 1) 43.3458deg,rgba(249, 218, 132, 1) 80.6806deg,rgba(200, 246, 134, 1) 116.536deg,rgba(137, 244, 178, 1) 158.368deg,rgba(139, 163, 242, 1) 204.862deg,rgba(231, 141, 239, 1) 247.27deg,rgba(243, 198, 255, 1) 289.038deg,rgba(255, 255, 255, 1) 325.241deg,rgba(255, 127, 127, 1) 360deg);height:100%;width:100%;opacity:0.5"></div></foreignObject></g></g><path d="M14.1145 0.794189C14.2917 0.401932 14.8494 0.40193 15.0266 0.794189L18.9377 9.45435C19.088 9.78685 19.3543 10.0531 19.6868 10.2034L28.3469 14.1145C28.7392 14.2917 28.7392 14.8494 28.3469 15.0266L19.6868 18.9377C19.3543 19.088 19.088 19.3543 18.9377 19.6868L15.0266 28.3469C14.8494 28.7392 14.2917 28.7392 14.1145 28.3469L10.2034 19.6868C10.0531 19.3543 9.78685 19.088 9.45435 18.9377L0.794189 15.0266C0.401932 14.8494 0.40193 14.2917 0.794189 14.1145L9.45435 10.2034C9.78685 10.0531 10.0531 9.78685 10.2034 9.45435L14.1145 0.794189Z" data-figma-gradient-fill="{&#34;type&#34;:&#34;GRADIENT_ANGULAR&#34;,&#34;stops&#34;:[{&#34;color&#34;:{&#34;r&#34;:1.0,&#34;g&#34;:0.50,&#34;b&#34;:0.50,&#34;a&#34;:1.0},&#34;position&#34;:0.0},{&#34;color&#34;:{&#34;r&#34;:0.98579567670822144,&#34;g&#34;:0.65487593412399292,&#34;b&#34;:0.51305317878723145,&#34;a&#34;:1.0},&#34;position&#34;:0.12040510773658752},{&#34;color&#34;:{&#34;r&#34;:0.97677719593048096,&#34;g&#34;:0.85532748699188232,&#34;b&#34;:0.52134078741073608,&#34;a&#34;:1.0},&#34;position&#34;:0.22411267459392548},{&#34;color&#34;:{&#34;r&#34;:0.78530579805374146,&#34;g&#34;:0.96826452016830444,&#34;b&#34;:0.52916359901428223,&#34;a&#34;:1.0},&#34;position&#34;:0.32371151447296143},{&#34;color&#34;:{&#34;r&#34;:0.53736186027526855,&#34;g&#34;:0.95934331417083740,&#34;b&#34;:0.69912141561508179,&#34;a&#34;:1.0},&#34;position&#34;:0.43991059064865112},{&#34;color&#34;:{&#34;r&#34;:0.54572564363479614,&#34;g&#34;:0.64011275768280029,&#34;b&#34;:0.95024192333221436,&#34;a&#34;:1.0},&#34;position&#34;:0.56906110048294067},{&#34;color&#34;:{&#34;r&#34;:0.90872210264205933,&#34;g&#34;:0.55426901578903198,&#34;b&#34;:0.94094508886337280,&#34;a&#34;:1.0},&#34;position&#34;:0.68686103820800781},{&#34;color&#34;:{&#34;r&#34;:0.95576918125152588,&#34;g&#34;:0.77884614467620850,&#34;b&#34;:1.0,&#34;a&#34;:1.0},&#34;position&#34;:0.80288463830947876},{&#34;color&#34;:{&#34;r&#34;:1.0,&#34;g&#34;:1.0,&#34;b&#34;:1.0,&#34;a&#34;:1.0},&#34;position&#34;:0.90344685316085815}],&#34;stopsVar&#34;:[{&#34;color&#34;:{&#34;r&#34;:1.0,&#34;g&#34;:0.50,&#34;b&#34;:0.50,&#34;a&#34;:1.0},&#34;position&#34;:0.0},{&#34;color&#34;:{&#34;r&#34;:0.98579567670822144,&#34;g&#34;:0.65487593412399292,&#34;b&#34;:0.51305317878723145,&#34;a&#34;:1.0},&#34;position&#34;:0.12040510773658752},{&#34;color&#34;:{&#34;r&#34;:0.97677719593048096,&#34;g&#34;:0.85532748699188232,&#34;b&#34;:0.52134078741073608,&#34;a&#34;:1.0},&#34;position&#34;:0.22411267459392548},{&#34;color&#34;:{&#34;r&#34;:0.78530579805374146,&#34;g&#34;:0.96826452016830444,&#34;b&#34;:0.52916359901428223,&#34;a&#34;:1.0},&#34;position&#34;:0.32371151447296143},{&#34;color&#34;:{&#34;r&#34;:0.53736186027526855,&#34;g&#34;:0.95934331417083740,&#34;b&#34;:0.69912141561508179,&#34;a&#34;:1.0},&#34;position&#34;:0.43991059064865112},{&#34;color&#34;:{&#34;r&#34;:0.54572564363479614,&#34;g&#34;:0.64011275768280029,&#34;b&#34;:0.95024192333221436,&#34;a&#34;:1.0},&#34;position&#34;:0.56906110048294067},{&#34;color&#34;:{&#34;r&#34;:0.90872210264205933,&#34;g&#34;:0.55426901578903198,&#34;b&#34;:0.94094508886337280,&#34;a&#34;:1.0},&#34;position&#34;:0.68686103820800781},{&#34;color&#34;:{&#34;r&#34;:0.95576918125152588,&#34;g&#34;:0.77884614467620850,&#34;b&#34;:1.0,&#34;a&#34;:1.0},&#34;position&#34;:0.80288463830947876},{&#34;color&#34;:{&#34;r&#34;:1.0,&#34;g&#34;:1.0,&#34;b&#34;:1.0,&#34;a&#34;:1.0},&#34;position&#34;:0.90344685316085815}],&#34;transform&#34;:{&#34;m00&#34;:1.9594349641362686e-15,&#34;m01&#34;:-32.0,&#34;m02&#34;:30.5705566406250,&#34;m10&#34;:32.0,&#34;m11&#34;:2.5263742327660691e-15,&#34;m12&#34;:-1.4294433593750},&#34;opacity&#34;:0.50,&#34;blendMode&#34;:&#34;NORMAL&#34;,&#34;visible&#34;:true}"/>
<path d="M14.1145 0.794189C14.2917 0.401932 14.8494 0.40193 15.0266 0.794189L18.9377 9.45435C19.088 9.78685 19.3543 10.0531 19.6868 10.2034L28.3469 14.1145C28.7392 14.2917 28.7392 14.8494 28.3469 15.0266L19.6868 18.9377C19.3543 19.088 19.088 19.3543 18.9377 19.6868L15.0266 28.3469C14.8494 28.7392 14.2917 28.7392 14.1145 28.3469L10.2034 19.6868C10.0531 19.3543 9.78685 19.088 9.45435 18.9377L0.794189 15.0266C0.401932 14.8494 0.40193 14.2917 0.794189 14.1145L9.45435 10.2034C9.78685 10.0531 10.0531 9.78685 10.2034 9.45435L14.1145 0.794189Z" stroke="url(#paint1_linear_310_27)"/>
<defs>
<clipPath id="paint0_angular_310_27_clip_path"><path d="M14.1145 0.794189C14.2917 0.401932 14.8494 0.40193 15.0266 0.794189L18.9377 9.45435C19.088 9.78685 19.3543 10.0531 19.6868 10.2034L28.3469 14.1145C28.7392 14.2917 28.7392 14.8494 28.3469 15.0266L19.6868 18.9377C19.3543 19.088 19.088 19.3543 18.9377 19.6868L15.0266 28.3469C14.8494 28.7392 14.2917 28.7392 14.1145 28.3469L10.2034 19.6868C10.0531 19.3543 9.78685 19.088 9.45435 18.9377L0.794189 15.0266C0.401932 14.8494 0.40193 14.2917 0.794189 14.1145L9.45435 10.2034C9.78685 10.0531 10.0531 9.78685 10.2034 9.45435L14.1145 0.794189Z"/></clipPath><linearGradient id="paint1_linear_310_27" x1="5.57056" y1="6.57056" x2="23.0706" y2="22.0706" gradientUnits="userSpaceOnUse">
<stop stop-color="white"/>
<stop offset="0.514423" stop-color="white" stop-opacity="0"/>
<stop offset="0.9999" stop-color="white"/>
</linearGradient>
</defs>
</svg>
